<mxfile host="app.diagrams.net" modified="2023-10-04T07:51:34.415Z" agent="Mozilla/5.0 (Windows NT 10.0; Win64; x64) AppleWebKit/537.36 (KHTML, like Gecko) Chrome/117.0.0.0 Safari/537.36" etag="xgEaRFX37LcdVBRNO68V" version="22.0.2" type="device">
  <diagram name="Page-1" id="lvAYDrxqm_knt7KE3z8S">
    <mxGraphModel dx="1434" dy="758" grid="1" gridSize="10" guides="1" tooltips="1" connect="1" arrows="1" fold="1" page="1" pageScale="1" pageWidth="827" pageHeight="1169" math="0" shadow="0">
      <root>
        <mxCell id="0" />
        <mxCell id="1" parent="0" />
        <mxCell id="9ma9pZaFuGtW4grojCQ7-4" value="loopper" style="shape=umlFrame;whiteSpace=wrap;html=1;pointerEvents=0;" vertex="1" parent="1">
          <mxGeometry x="220" y="490" width="300" height="200" as="geometry" />
        </mxCell>
        <mxCell id="9ma9pZaFuGtW4grojCQ7-5" value="see all exercise" style="ellipse;whiteSpace=wrap;html=1;" vertex="1" parent="1">
          <mxGeometry x="300" y="550" width="140" height="70" as="geometry" />
        </mxCell>
        <mxCell id="9ma9pZaFuGtW4grojCQ7-7" style="edgeStyle=orthogonalEdgeStyle;rounded=0;orthogonalLoop=1;jettySize=auto;html=1;endArrow=none;endFill=0;" edge="1" parent="1" source="9ma9pZaFuGtW4grojCQ7-6" target="9ma9pZaFuGtW4grojCQ7-5">
          <mxGeometry relative="1" as="geometry" />
        </mxCell>
        <mxCell id="9ma9pZaFuGtW4grojCQ7-6" value="user" style="shape=umlActor;verticalLabelPosition=bottom;verticalAlign=top;html=1;" vertex="1" parent="1">
          <mxGeometry x="90" y="560" width="30" height="60" as="geometry" />
        </mxCell>
      </root>
    </mxGraphModel>
  </diagram>
</mxfile>
